<svg xmlns="http://www.w3.org/2000/svg" viewBox="0 0 543.28 83.52"><defs><style>.cls-1{fill:#00aced;}.cls-2{fill:none;}.cls-3{fill:#ebe70e;}</style></defs><g id="Layer_1" data-name="Layer 1"><path class="cls-1" d="M296.61,9.16a9.49,9.49,0,0,0-.77-2.91A10.1,10.1,0,0,0,290.22,1c-4.65-1.75-9.43-.84-13.57,1.51-3.53,2-10.46,6.69-10.46,6.69a65.5,65.5,0,0,1-7.77,4.63,24.07,24.07,0,0,1-8.91,2c-2.66,0-5.46-.05-7.46-2a5.55,5.55,0,0,1-1.81-4.2,5.36,5.36,0,0,1,2.5-4.05,8.69,8.69,0,0,1,5.59-1.21,21.76,21.76,0,0,1,12,5.63l3.5-2.38c-2.54-2.28-9.42-7.9-17.65-7.28-4.69.36-9.53,2.61-10.39,8.89-.46,3.35,1.15,10.9,12.24,11,7.35.05,14.38-3.3,19.65-6.84,7.55-5.08,11.58-8.93,16.49-9,2.32-.06,6.13.81,7.47,4,1.7,4-2,7.74-6.85,7.85-6.71.15-9-1.36-12.18-3.2l-3.76,2.76s2.45,1.44,3.24,1.81a36.64,36.64,0,0,0,4.84,1.92c4.56,1.41,9.68,1.71,14.05-.52A10.65,10.65,0,0,0,295.85,14,9.43,9.43,0,0,0,296.61,9.16Z" transform="translate(-0.06 -0.08)"/><path class="cls-1" d="M85.28,32.24v26c0,7.55,4.13,13.29,12,13.29,7.56,0,12.69-6.35,12.69-13.9V32.24h12.19V82h-11l-.81-6.75c-5.13,5-9.87,7.46-16.81,7.46C81.65,82.7,73,73.73,73,58.33V32.24Z" transform="translate(-0.06 -0.08)"/><path class="cls-1" d="M144.4,32.24l.9,5.74c3.83-6.14,9-7,14-7s10.07,2,12.79,4.74l-5.54,10.67a12.29,12.29,0,0,0-8.86-3.22c-6.45,0-12.39,3.42-12.39,12.59V81.89H133V32.24Z" transform="translate(-0.06 -0.08)"/><path class="cls-1" d="M216.1,32.24h11.78V81.89H216.3l-.6-7.25c-2.82,5.84-10.58,8.66-16.11,8.76C184.88,83.5,174,74.44,174,57c0-17.12,11.38-26.09,25.88-26,6.64,0,13,3.12,15.81,8.06ZM186.29,57c0,9.46,6.55,15.1,14.71,15.1,19.33,0,19.33-30.11,0-30.11C192.84,42,186.29,47.55,186.29,57Z" transform="translate(-0.06 -0.08)"/><path class="cls-2" d="M246.63,51.28H256a25.46,25.46,0,0,1,3.68-9.62C253.42,41.93,248.36,45.12,246.63,51.28Z" transform="translate(-0.06 -0.08)"/><path class="cls-2" d="M246.42,61.45c.75,5.66,5.35,9.86,12.85,10.48a26.07,26.07,0,0,1-3.49-10.48Z" transform="translate(-0.06 -0.08)"/><path class="cls-2" d="M273.41,51.28a10.92,10.92,0,0,0-1.65-4.69,13.75,13.75,0,0,0-2.95,4.69Z" transform="translate(-0.06 -0.08)"/><path class="cls-3" d="M282.3,42.42A15.1,15.1,0,0,1,292,46.34l7.76-8.16a23.61,23.61,0,0,0-17.93-7.35,31,31,0,0,0-10.62,1.8A20.58,20.58,0,0,1,282.3,42.42Z" transform="translate(-0.06 -0.08)"/><path class="cls-1" d="M267.77,57.12a17.83,17.83,0,0,0,.53,4.33h16.9c.73-7.85-.36-14.18-2.9-19a20.58,20.58,0,0,0-11.05-9.79,30.85,30.85,0,0,0-11.13-1.9c-16.11,0-26.38,10.88-26.38,26,0,15.92,10.17,26.49,27.29,26.49a34.84,34.84,0,0,0,10.24-1.59,22.86,22.86,0,0,1-12-9.68c-7.5-.62-12.1-4.82-12.85-10.48h9.36a35.36,35.36,0,0,1-.29-4.33,34.66,34.66,0,0,1,.49-5.84h-9.35c1.73-6.16,6.79-9.35,13-9.62.29,0,.57,0,.86,0,5.06,0,9.07,1.67,11.24,5a10.92,10.92,0,0,1,1.65,4.69h-4.6A16.31,16.31,0,0,0,267.77,57.12Z" transform="translate(-0.06 -0.08)"/><path class="cls-3" d="M292.75,67.49a14.94,14.94,0,0,1-10.88,4.13,16.26,16.26,0,0,1-3.44-.38,13.54,13.54,0,0,1-5.55-2.53,13,13,0,0,1-4.58-7.26,17.83,17.83,0,0,1-.53-4.33,16.31,16.31,0,0,1,1-5.84,13.75,13.75,0,0,1,2.95-4.69c-2.17-3.31-6.18-5-11.24-5-.29,0-.57,0-.86,0A25.46,25.46,0,0,0,256,51.28a34.66,34.66,0,0,0-.49,5.84,35.36,35.36,0,0,0,.29,4.33,26.07,26.07,0,0,0,3.49,10.48,22.86,22.86,0,0,0,12,9.68,30.88,30.88,0,0,0,10.6,1.79A25.55,25.55,0,0,0,301,75.55Z" transform="translate(-0.06 -0.08)"/><path class="cls-3" d="M318.73,11.4V39c4.43-5.74,9.87-7.45,15.51-7.45,14.1,0,20.34,9.56,20.34,24.17V81.89H342.3V55.81c0-9.07-4.73-12.89-11.28-12.89-7.25,0-12.29,6.14-12.29,13.59V81.89H306.45V11.4Z" transform="translate(-0.06 -0.08)"/><path class="cls-3" d="M414.31,57.12c0,14.3-9.77,25.88-25.88,25.88s-25.79-11.58-25.79-25.88,9.87-25.88,25.68-25.88S414.31,42.92,414.31,57.12Zm-39.38,0c0,7.55,4.53,14.6,13.5,14.6s13.49-7,13.49-14.6-5.24-14.71-13.49-14.71C379.56,42.41,374.93,49.66,374.93,57.12Z" transform="translate(-0.06 -0.08)"/><path class="cls-3" d="M436.16,18.24c0,9.57-14.5,9.57-14.5,0S436.16,8.68,436.16,18.24ZM422.77,32V81.89h12.28V32Z" transform="translate(-0.06 -0.08)"/><path class="cls-3" d="M488.73,75.55A25.53,25.53,0,0,1,469.6,83.4c-14.4,0-26.39-8.66-26.39-26.28s12-26.29,26.39-26.29a23.58,23.58,0,0,1,17.92,7.35l-7.75,8.16a15.08,15.08,0,0,0-10-3.93c-8.26,0-14.3,6.05-14.3,14.71,0,9.46,6.44,14.5,14.1,14.5a14.91,14.91,0,0,0,10.87-4.13Z" transform="translate(-0.06 -0.08)"/><path class="cls-1" d="M69,71.85C61.2,79.53,51.14,83.1,40.21,83.1,12.08,83.1.17,63.73.07,44S12.83,4.11,40.21,4.11A39.09,39.09,0,0,1,68,15.69l-9.52,9.2a26,26,0,0,0-18.29-7.14C21.92,17.75,14,31.38,14.13,44s7.36,25.64,26.08,25.64a27.85,27.85,0,0,0,19-7.68Z" transform="translate(-0.06 -0.08)"/><path class="cls-3" d="M504.34,61.84c.81,6.15,6.15,10.58,14.81,10.58,4.53,0,10.47-1.71,13.29-4.64l7.85,7.76C535.06,81,526.5,83.6,518.94,83.6c-17.12,0-27.29-10.58-27.29-26.49,0-15.11,10.28-26,26.39-26,16.62,0,27,10.27,25.08,30.71Zm27-10.17c-.8-6.44-5.84-9.67-12.89-9.67-6.64,0-12.08,3.23-13.9,9.67Z" transform="translate(-0.06 -0.08)"/></g></svg>